<mxfile host="app.diagrams.net" modified="2021-11-29T12:10:55.380Z" agent="5.0 (Windows NT 10.0; Win64; x64) AppleWebKit/537.36 (KHTML, like Gecko) Chrome/96.0.4664.45 Safari/537.36" etag="GyIsF0SR3aMsvbNTS-vr" version="15.8.6" type="github">
  <diagram id="hev2Iy_Hujhl8WelgFsY" name="Page-1">
    <mxGraphModel dx="943" dy="676" grid="1" gridSize="10" guides="1" tooltips="1" connect="1" arrows="1" fold="1" page="1" pageScale="1" pageWidth="827" pageHeight="1169" math="0" shadow="0">
      <root>
        <mxCell id="0" />
        <mxCell id="1" parent="0" />
        <mxCell id="a1GiVzaN-EVHkBNXrEb7-111" value="" style="rounded=0;whiteSpace=wrap;html=1;fontSize=14;strokeWidth=2;" vertex="1" parent="1">
          <mxGeometry x="10" y="610" width="120" height="120" as="geometry" />
        </mxCell>
        <mxCell id="a1GiVzaN-EVHkBNXrEb7-93" value="" style="rounded=1;whiteSpace=wrap;html=1;fontSize=14;strokeWidth=2;" vertex="1" parent="1">
          <mxGeometry x="460" y="320" width="330" height="120" as="geometry" />
        </mxCell>
        <mxCell id="a1GiVzaN-EVHkBNXrEb7-98" value="" style="edgeStyle=orthogonalEdgeStyle;rounded=0;orthogonalLoop=1;jettySize=auto;html=1;fontSize=14;fillColor=#dae8fc;strokeColor=#6c8ebf;" edge="1" parent="1" source="a1GiVzaN-EVHkBNXrEb7-75" target="a1GiVzaN-EVHkBNXrEb7-97">
          <mxGeometry relative="1" as="geometry" />
        </mxCell>
        <mxCell id="a1GiVzaN-EVHkBNXrEb7-75" value="&lt;font style=&quot;font-size: 14px&quot;&gt;input.csv&lt;/font&gt;" style="rounded=1;whiteSpace=wrap;html=1;fillColor=#dae8fc;strokeColor=#6c8ebf;" vertex="1" parent="1">
          <mxGeometry x="130" y="100" width="120" height="60" as="geometry" />
        </mxCell>
        <mxCell id="a1GiVzaN-EVHkBNXrEb7-86" value="" style="edgeStyle=orthogonalEdgeStyle;rounded=0;orthogonalLoop=1;jettySize=auto;html=1;fontSize=16;" edge="1" parent="1" source="a1GiVzaN-EVHkBNXrEb7-76" target="a1GiVzaN-EVHkBNXrEb7-84">
          <mxGeometry relative="1" as="geometry" />
        </mxCell>
        <mxCell id="a1GiVzaN-EVHkBNXrEb7-76" value="&lt;font style=&quot;font-size: 14px&quot;&gt;output из TurboSR&lt;/font&gt;" style="rounded=1;whiteSpace=wrap;html=1;" vertex="1" parent="1">
          <mxGeometry x="565" y="100" width="120" height="60" as="geometry" />
        </mxCell>
        <mxCell id="a1GiVzaN-EVHkBNXrEb7-77" value="" style="endArrow=none;html=1;rounded=0;" edge="1" parent="1">
          <mxGeometry width="50" height="50" relative="1" as="geometry">
            <mxPoint x="10" y="30" as="sourcePoint" />
            <mxPoint x="820" y="30" as="targetPoint" />
          </mxGeometry>
        </mxCell>
        <mxCell id="a1GiVzaN-EVHkBNXrEb7-78" value="&lt;font style=&quot;font-size: 16px&quot;&gt;&lt;b&gt;Схема работы программы &quot;Профилятор&quot;&lt;/b&gt;&lt;/font&gt;" style="text;html=1;strokeColor=none;fillColor=none;align=center;verticalAlign=middle;whiteSpace=wrap;rounded=0;" vertex="1" parent="1">
          <mxGeometry x="150" width="500" height="30" as="geometry" />
        </mxCell>
        <mxCell id="a1GiVzaN-EVHkBNXrEb7-79" value="" style="endArrow=none;html=1;rounded=0;" edge="1" parent="1">
          <mxGeometry width="50" height="50" relative="1" as="geometry">
            <mxPoint x="9" y="80" as="sourcePoint" />
            <mxPoint x="819" y="80" as="targetPoint" />
          </mxGeometry>
        </mxCell>
        <mxCell id="a1GiVzaN-EVHkBNXrEb7-80" value="" style="endArrow=none;html=1;rounded=0;entryX=0.532;entryY=1.152;entryDx=0;entryDy=0;entryPerimeter=0;" edge="1" parent="1" target="a1GiVzaN-EVHkBNXrEb7-78">
          <mxGeometry width="50" height="50" relative="1" as="geometry">
            <mxPoint x="416" y="490" as="sourcePoint" />
            <mxPoint x="420" y="260" as="targetPoint" />
          </mxGeometry>
        </mxCell>
        <mxCell id="a1GiVzaN-EVHkBNXrEb7-81" value="&lt;font style=&quot;font-size: 14px&quot;&gt;Блок расчета Осевого Компрессора (ОК)&lt;/font&gt;" style="text;html=1;strokeColor=none;fillColor=none;align=center;verticalAlign=middle;whiteSpace=wrap;rounded=0;strokeWidth=2;" vertex="1" parent="1">
          <mxGeometry x="60" y="40" width="280" height="30" as="geometry" />
        </mxCell>
        <mxCell id="a1GiVzaN-EVHkBNXrEb7-82" value="&lt;font style=&quot;font-size: 14px&quot;&gt;Блок расчета турбины Т&lt;/font&gt;" style="text;html=1;strokeColor=none;fillColor=none;align=center;verticalAlign=middle;whiteSpace=wrap;rounded=0;" vertex="1" parent="1">
          <mxGeometry x="510" y="40" width="230" height="30" as="geometry" />
        </mxCell>
        <mxCell id="a1GiVzaN-EVHkBNXrEb7-89" style="edgeStyle=orthogonalEdgeStyle;rounded=0;orthogonalLoop=1;jettySize=auto;html=1;entryX=0.5;entryY=0;entryDx=0;entryDy=0;fontSize=14;fillColor=#f8cecc;strokeColor=#b85450;" edge="1" parent="1" source="a1GiVzaN-EVHkBNXrEb7-84" target="a1GiVzaN-EVHkBNXrEb7-88">
          <mxGeometry relative="1" as="geometry" />
        </mxCell>
        <mxCell id="a1GiVzaN-EVHkBNXrEb7-84" value="Parser.py" style="shape=process;whiteSpace=wrap;html=1;backgroundOutline=1;fontSize=16;strokeWidth=2;fillColor=#dae8fc;strokeColor=#6c8ebf;" vertex="1" parent="1">
          <mxGeometry x="565" y="200" width="120" height="60" as="geometry" />
        </mxCell>
        <mxCell id="a1GiVzaN-EVHkBNXrEb7-90" style="edgeStyle=orthogonalEdgeStyle;rounded=0;orthogonalLoop=1;jettySize=auto;html=1;exitX=1;exitY=0.5;exitDx=0;exitDy=0;fontSize=14;" edge="1" parent="1" source="a1GiVzaN-EVHkBNXrEb7-88" target="a1GiVzaN-EVHkBNXrEb7-91">
          <mxGeometry relative="1" as="geometry">
            <mxPoint x="670" y="380" as="targetPoint" />
          </mxGeometry>
        </mxCell>
        <mxCell id="a1GiVzaN-EVHkBNXrEb7-88" value="Обработка данных из парсера" style="rounded=0;whiteSpace=wrap;html=1;fontSize=14;strokeWidth=2;fillColor=#f8cecc;strokeColor=#b85450;" vertex="1" parent="1">
          <mxGeometry x="500" y="350" width="115" height="60" as="geometry" />
        </mxCell>
        <mxCell id="a1GiVzaN-EVHkBNXrEb7-96" style="edgeStyle=orthogonalEdgeStyle;rounded=0;orthogonalLoop=1;jettySize=auto;html=1;entryX=1;entryY=0.5;entryDx=0;entryDy=0;fontSize=14;fillColor=#f8cecc;strokeColor=#b85450;" edge="1" parent="1" source="a1GiVzaN-EVHkBNXrEb7-91" target="a1GiVzaN-EVHkBNXrEb7-95">
          <mxGeometry relative="1" as="geometry">
            <Array as="points">
              <mxPoint x="710" y="575" />
            </Array>
          </mxGeometry>
        </mxCell>
        <mxCell id="a1GiVzaN-EVHkBNXrEb7-91" value="Профилирование лопаток турбины" style="rounded=0;whiteSpace=wrap;html=1;fontSize=14;strokeWidth=2;fillColor=#f8cecc;strokeColor=#b85450;" vertex="1" parent="1">
          <mxGeometry x="650" y="350" width="120" height="60" as="geometry" />
        </mxCell>
        <mxCell id="a1GiVzaN-EVHkBNXrEb7-112" style="edgeStyle=orthogonalEdgeStyle;rounded=0;orthogonalLoop=1;jettySize=auto;html=1;exitX=0.5;exitY=1;exitDx=0;exitDy=0;entryX=0.5;entryY=0;entryDx=0;entryDy=0;fontSize=14;" edge="1" parent="1" source="a1GiVzaN-EVHkBNXrEb7-95" target="a1GiVzaN-EVHkBNXrEb7-110">
          <mxGeometry relative="1" as="geometry" />
        </mxCell>
        <mxCell id="a1GiVzaN-EVHkBNXrEb7-95" value="Создание geomturbo" style="shape=process;whiteSpace=wrap;html=1;backgroundOutline=1;fontSize=14;strokeWidth=2;fillColor=#fff2cc;strokeColor=#d6b656;" vertex="1" parent="1">
          <mxGeometry x="350" y="530" width="160" height="90" as="geometry" />
        </mxCell>
        <mxCell id="a1GiVzaN-EVHkBNXrEb7-100" value="" style="edgeStyle=orthogonalEdgeStyle;rounded=0;orthogonalLoop=1;jettySize=auto;html=1;fontSize=14;fillColor=#dae8fc;strokeColor=#6c8ebf;" edge="1" parent="1" source="a1GiVzaN-EVHkBNXrEb7-97" target="a1GiVzaN-EVHkBNXrEb7-99">
          <mxGeometry relative="1" as="geometry" />
        </mxCell>
        <mxCell id="a1GiVzaN-EVHkBNXrEb7-97" value="Расчет на среднем ОК" style="rounded=0;whiteSpace=wrap;html=1;fontSize=14;strokeWidth=2;fillColor=#dae8fc;strokeColor=#6c8ebf;" vertex="1" parent="1">
          <mxGeometry x="130" y="200" width="120" height="60" as="geometry" />
        </mxCell>
        <mxCell id="a1GiVzaN-EVHkBNXrEb7-101" style="edgeStyle=orthogonalEdgeStyle;rounded=0;orthogonalLoop=1;jettySize=auto;html=1;entryX=0;entryY=0.5;entryDx=0;entryDy=0;fontSize=14;fillColor=#fff2cc;strokeColor=#d6b656;" edge="1" parent="1" source="a1GiVzaN-EVHkBNXrEb7-99" target="a1GiVzaN-EVHkBNXrEb7-95">
          <mxGeometry relative="1" as="geometry">
            <Array as="points">
              <mxPoint x="190" y="575" />
            </Array>
          </mxGeometry>
        </mxCell>
        <mxCell id="a1GiVzaN-EVHkBNXrEb7-99" value="Профилирование лопаток ОК" style="rounded=0;whiteSpace=wrap;html=1;fontSize=14;strokeWidth=2;fillColor=#fff2cc;strokeColor=#d6b656;" vertex="1" parent="1">
          <mxGeometry x="130" y="310" width="120" height="60" as="geometry" />
        </mxCell>
        <mxCell id="a1GiVzaN-EVHkBNXrEb7-103" value="" style="rounded=0;whiteSpace=wrap;html=1;fontSize=14;strokeWidth=2;fillColor=#dae8fc;strokeColor=#6c8ebf;" vertex="1" parent="1">
          <mxGeometry x="20" y="630" width="30" height="20" as="geometry" />
        </mxCell>
        <mxCell id="a1GiVzaN-EVHkBNXrEb7-104" value="" style="rounded=0;whiteSpace=wrap;html=1;fontSize=14;strokeWidth=2;fillColor=#fff2cc;strokeColor=#d6b656;" vertex="1" parent="1">
          <mxGeometry x="20" y="660" width="30" height="20" as="geometry" />
        </mxCell>
        <mxCell id="a1GiVzaN-EVHkBNXrEb7-105" value="" style="rounded=0;whiteSpace=wrap;html=1;fontSize=14;strokeWidth=2;fillColor=#f8cecc;strokeColor=#b85450;" vertex="1" parent="1">
          <mxGeometry x="20" y="690" width="30" height="20" as="geometry" />
        </mxCell>
        <mxCell id="a1GiVzaN-EVHkBNXrEb7-106" value="Игорь" style="text;html=1;strokeColor=none;fillColor=none;align=center;verticalAlign=middle;whiteSpace=wrap;rounded=0;fontSize=14;" vertex="1" parent="1">
          <mxGeometry x="60" y="625" width="60" height="30" as="geometry" />
        </mxCell>
        <mxCell id="a1GiVzaN-EVHkBNXrEb7-107" value="Миша" style="text;html=1;strokeColor=none;fillColor=none;align=center;verticalAlign=middle;whiteSpace=wrap;rounded=0;fontSize=14;" vertex="1" parent="1">
          <mxGeometry x="60" y="655" width="60" height="30" as="geometry" />
        </mxCell>
        <mxCell id="a1GiVzaN-EVHkBNXrEb7-109" value="Сергей" style="text;html=1;strokeColor=none;fillColor=none;align=center;verticalAlign=middle;whiteSpace=wrap;rounded=0;fontSize=14;" vertex="1" parent="1">
          <mxGeometry x="60" y="685" width="60" height="30" as="geometry" />
        </mxCell>
        <mxCell id="a1GiVzaN-EVHkBNXrEb7-110" value="Создание геометрии лопатки в NX" style="rounded=0;whiteSpace=wrap;html=1;fontSize=14;strokeWidth=2;fillColor=#f8cecc;strokeColor=#b85450;" vertex="1" parent="1">
          <mxGeometry x="360" y="700" width="140" height="80" as="geometry" />
        </mxCell>
      </root>
    </mxGraphModel>
  </diagram>
</mxfile>
